<mxfile host="Electron" agent="Mozilla/5.0 (Windows NT 10.0; Win64; x64) AppleWebKit/537.36 (KHTML, like Gecko) draw.io/28.1.2 Chrome/138.0.7204.243 Electron/37.4.0 Safari/537.36" version="28.1.2">
  <diagram name="StrÃ¡nka-1" id="-Aw7wsCUPWddHzT8ALZq">
    <mxGraphModel dx="1090" dy="868" grid="1" gridSize="10" guides="1" tooltips="1" connect="1" arrows="1" fold="1" page="1" pageScale="1" pageWidth="1200" pageHeight="1920" math="0" shadow="0">
      <root>
        <mxCell id="0" />
        <mxCell id="1" parent="0" />
        <mxCell id="0hg39-t4RLO_7bFHNs7U-1" value="Data Model &lt;font style=&quot;font-size: 16px;&quot;&gt;(Star Schema)&lt;/font&gt;" style="text;html=1;align=center;verticalAlign=middle;whiteSpace=wrap;rounded=0;fontSize=24;" vertex="1" parent="1">
          <mxGeometry x="10" y="10" width="310" height="30" as="geometry" />
        </mxCell>
        <mxCell id="0hg39-t4RLO_7bFHNs7U-2" value="gold.dim.customers" style="shape=table;startSize=30;container=1;collapsible=1;childLayout=tableLayout;fixedRows=1;rowLines=0;fontStyle=1;align=center;resizeLast=1;html=1;rounded=1;fillColor=#fff2cc;strokeColor=#d6b656;fontSize=16;" vertex="1" parent="1">
          <mxGeometry x="190" y="217" width="180" height="411" as="geometry" />
        </mxCell>
        <mxCell id="0hg39-t4RLO_7bFHNs7U-3" value="" style="shape=tableRow;horizontal=0;startSize=0;swimlaneHead=0;swimlaneBody=0;fillColor=none;collapsible=0;dropTarget=0;points=[[0,0.5],[1,0.5]];portConstraint=eastwest;top=0;left=0;right=0;bottom=1;" vertex="1" parent="0hg39-t4RLO_7bFHNs7U-2">
          <mxGeometry y="30" width="180" height="30" as="geometry" />
        </mxCell>
        <mxCell id="0hg39-t4RLO_7bFHNs7U-4" value="&lt;font style=&quot;font-size: 16px;&quot;&gt;PK&lt;/font&gt;" style="shape=partialRectangle;connectable=0;fillColor=none;top=0;left=0;bottom=0;right=0;fontStyle=1;overflow=hidden;whiteSpace=wrap;html=1;" vertex="1" parent="0hg39-t4RLO_7bFHNs7U-3">
          <mxGeometry width="30" height="30" as="geometry">
            <mxRectangle width="30" height="30" as="alternateBounds" />
          </mxGeometry>
        </mxCell>
        <mxCell id="0hg39-t4RLO_7bFHNs7U-5" value="&lt;font style=&quot;font-size: 16px;&quot;&gt;customer_key&lt;/font&gt;" style="shape=partialRectangle;connectable=0;fillColor=none;top=0;left=0;bottom=0;right=0;align=left;spacingLeft=6;fontStyle=5;overflow=hidden;whiteSpace=wrap;html=1;labelBackgroundColor=#CCCCCC;" vertex="1" parent="0hg39-t4RLO_7bFHNs7U-3">
          <mxGeometry x="30" width="150" height="30" as="geometry">
            <mxRectangle width="150" height="30" as="alternateBounds" />
          </mxGeometry>
        </mxCell>
        <mxCell id="0hg39-t4RLO_7bFHNs7U-6" value="" style="shape=tableRow;horizontal=0;startSize=0;swimlaneHead=0;swimlaneBody=0;fillColor=none;collapsible=0;dropTarget=0;points=[[0,0.5],[1,0.5]];portConstraint=eastwest;top=0;left=0;right=0;bottom=0;fontSize=16;" vertex="1" parent="0hg39-t4RLO_7bFHNs7U-2">
          <mxGeometry y="60" width="180" height="39" as="geometry" />
        </mxCell>
        <mxCell id="0hg39-t4RLO_7bFHNs7U-7" value="" style="shape=partialRectangle;connectable=0;fillColor=none;top=0;left=0;bottom=0;right=0;editable=1;overflow=hidden;whiteSpace=wrap;html=1;fontSize=16;" vertex="1" parent="0hg39-t4RLO_7bFHNs7U-6">
          <mxGeometry width="30" height="39" as="geometry">
            <mxRectangle width="30" height="39" as="alternateBounds" />
          </mxGeometry>
        </mxCell>
        <mxCell id="0hg39-t4RLO_7bFHNs7U-8" value="customer_id&lt;span style=&quot;white-space: pre;&quot;&gt;&#x9;&lt;/span&gt;&lt;span style=&quot;white-space: pre;&quot;&gt;&#x9;&lt;/span&gt;" style="shape=partialRectangle;connectable=0;fillColor=none;top=0;left=0;bottom=0;right=0;align=left;spacingLeft=6;overflow=hidden;whiteSpace=wrap;html=1;fontSize=16;" vertex="1" parent="0hg39-t4RLO_7bFHNs7U-6">
          <mxGeometry x="30" width="150" height="39" as="geometry">
            <mxRectangle width="150" height="39" as="alternateBounds" />
          </mxGeometry>
        </mxCell>
        <mxCell id="0hg39-t4RLO_7bFHNs7U-15" value="" style="shape=tableRow;horizontal=0;startSize=0;swimlaneHead=0;swimlaneBody=0;fillColor=none;collapsible=0;dropTarget=0;points=[[0,0.5],[1,0.5]];portConstraint=eastwest;top=0;left=0;right=0;bottom=0;fontSize=16;" vertex="1" parent="0hg39-t4RLO_7bFHNs7U-2">
          <mxGeometry y="99" width="180" height="39" as="geometry" />
        </mxCell>
        <mxCell id="0hg39-t4RLO_7bFHNs7U-16" value="" style="shape=partialRectangle;connectable=0;fillColor=none;top=0;left=0;bottom=0;right=0;editable=1;overflow=hidden;whiteSpace=wrap;html=1;fontSize=16;" vertex="1" parent="0hg39-t4RLO_7bFHNs7U-15">
          <mxGeometry width="30" height="39" as="geometry">
            <mxRectangle width="30" height="39" as="alternateBounds" />
          </mxGeometry>
        </mxCell>
        <mxCell id="0hg39-t4RLO_7bFHNs7U-17" value="customer_number" style="shape=partialRectangle;connectable=0;fillColor=none;top=0;left=0;bottom=0;right=0;align=left;spacingLeft=6;overflow=hidden;whiteSpace=wrap;html=1;fontSize=16;" vertex="1" parent="0hg39-t4RLO_7bFHNs7U-15">
          <mxGeometry x="30" width="150" height="39" as="geometry">
            <mxRectangle width="150" height="39" as="alternateBounds" />
          </mxGeometry>
        </mxCell>
        <mxCell id="0hg39-t4RLO_7bFHNs7U-9" value="" style="shape=tableRow;horizontal=0;startSize=0;swimlaneHead=0;swimlaneBody=0;fillColor=none;collapsible=0;dropTarget=0;points=[[0,0.5],[1,0.5]];portConstraint=eastwest;top=0;left=0;right=0;bottom=0;fontSize=16;" vertex="1" parent="0hg39-t4RLO_7bFHNs7U-2">
          <mxGeometry y="138" width="180" height="39" as="geometry" />
        </mxCell>
        <mxCell id="0hg39-t4RLO_7bFHNs7U-10" value="" style="shape=partialRectangle;connectable=0;fillColor=none;top=0;left=0;bottom=0;right=0;editable=1;overflow=hidden;whiteSpace=wrap;html=1;fontSize=16;" vertex="1" parent="0hg39-t4RLO_7bFHNs7U-9">
          <mxGeometry width="30" height="39" as="geometry">
            <mxRectangle width="30" height="39" as="alternateBounds" />
          </mxGeometry>
        </mxCell>
        <mxCell id="0hg39-t4RLO_7bFHNs7U-11" value="first_name" style="shape=partialRectangle;connectable=0;fillColor=none;top=0;left=0;bottom=0;right=0;align=left;spacingLeft=6;overflow=hidden;whiteSpace=wrap;html=1;fontSize=16;" vertex="1" parent="0hg39-t4RLO_7bFHNs7U-9">
          <mxGeometry x="30" width="150" height="39" as="geometry">
            <mxRectangle width="150" height="39" as="alternateBounds" />
          </mxGeometry>
        </mxCell>
        <mxCell id="0hg39-t4RLO_7bFHNs7U-18" value="" style="shape=tableRow;horizontal=0;startSize=0;swimlaneHead=0;swimlaneBody=0;fillColor=none;collapsible=0;dropTarget=0;points=[[0,0.5],[1,0.5]];portConstraint=eastwest;top=0;left=0;right=0;bottom=0;fontSize=16;" vertex="1" parent="0hg39-t4RLO_7bFHNs7U-2">
          <mxGeometry y="177" width="180" height="39" as="geometry" />
        </mxCell>
        <mxCell id="0hg39-t4RLO_7bFHNs7U-19" value="" style="shape=partialRectangle;connectable=0;fillColor=none;top=0;left=0;bottom=0;right=0;editable=1;overflow=hidden;whiteSpace=wrap;html=1;fontSize=16;" vertex="1" parent="0hg39-t4RLO_7bFHNs7U-18">
          <mxGeometry width="30" height="39" as="geometry">
            <mxRectangle width="30" height="39" as="alternateBounds" />
          </mxGeometry>
        </mxCell>
        <mxCell id="0hg39-t4RLO_7bFHNs7U-20" value="last_name" style="shape=partialRectangle;connectable=0;fillColor=none;top=0;left=0;bottom=0;right=0;align=left;spacingLeft=6;overflow=hidden;whiteSpace=wrap;html=1;fontSize=16;" vertex="1" parent="0hg39-t4RLO_7bFHNs7U-18">
          <mxGeometry x="30" width="150" height="39" as="geometry">
            <mxRectangle width="150" height="39" as="alternateBounds" />
          </mxGeometry>
        </mxCell>
        <mxCell id="0hg39-t4RLO_7bFHNs7U-12" value="" style="shape=tableRow;horizontal=0;startSize=0;swimlaneHead=0;swimlaneBody=0;fillColor=none;collapsible=0;dropTarget=0;points=[[0,0.5],[1,0.5]];portConstraint=eastwest;top=0;left=0;right=0;bottom=0;fontSize=16;" vertex="1" parent="0hg39-t4RLO_7bFHNs7U-2">
          <mxGeometry y="216" width="180" height="39" as="geometry" />
        </mxCell>
        <mxCell id="0hg39-t4RLO_7bFHNs7U-13" value="" style="shape=partialRectangle;connectable=0;fillColor=none;top=0;left=0;bottom=0;right=0;editable=1;overflow=hidden;whiteSpace=wrap;html=1;fontSize=16;" vertex="1" parent="0hg39-t4RLO_7bFHNs7U-12">
          <mxGeometry width="30" height="39" as="geometry">
            <mxRectangle width="30" height="39" as="alternateBounds" />
          </mxGeometry>
        </mxCell>
        <mxCell id="0hg39-t4RLO_7bFHNs7U-14" value="country" style="shape=partialRectangle;connectable=0;fillColor=none;top=0;left=0;bottom=0;right=0;align=left;spacingLeft=6;overflow=hidden;whiteSpace=wrap;html=1;fontSize=16;" vertex="1" parent="0hg39-t4RLO_7bFHNs7U-12">
          <mxGeometry x="30" width="150" height="39" as="geometry">
            <mxRectangle width="150" height="39" as="alternateBounds" />
          </mxGeometry>
        </mxCell>
        <mxCell id="0hg39-t4RLO_7bFHNs7U-21" value="" style="shape=tableRow;horizontal=0;startSize=0;swimlaneHead=0;swimlaneBody=0;fillColor=none;collapsible=0;dropTarget=0;points=[[0,0.5],[1,0.5]];portConstraint=eastwest;top=0;left=0;right=0;bottom=0;fontSize=16;" vertex="1" parent="0hg39-t4RLO_7bFHNs7U-2">
          <mxGeometry y="255" width="180" height="39" as="geometry" />
        </mxCell>
        <mxCell id="0hg39-t4RLO_7bFHNs7U-22" value="" style="shape=partialRectangle;connectable=0;fillColor=none;top=0;left=0;bottom=0;right=0;editable=1;overflow=hidden;whiteSpace=wrap;html=1;fontSize=16;" vertex="1" parent="0hg39-t4RLO_7bFHNs7U-21">
          <mxGeometry width="30" height="39" as="geometry">
            <mxRectangle width="30" height="39" as="alternateBounds" />
          </mxGeometry>
        </mxCell>
        <mxCell id="0hg39-t4RLO_7bFHNs7U-23" value="marital_status" style="shape=partialRectangle;connectable=0;fillColor=none;top=0;left=0;bottom=0;right=0;align=left;spacingLeft=6;overflow=hidden;whiteSpace=wrap;html=1;fontSize=16;" vertex="1" parent="0hg39-t4RLO_7bFHNs7U-21">
          <mxGeometry x="30" width="150" height="39" as="geometry">
            <mxRectangle width="150" height="39" as="alternateBounds" />
          </mxGeometry>
        </mxCell>
        <mxCell id="0hg39-t4RLO_7bFHNs7U-24" value="" style="shape=tableRow;horizontal=0;startSize=0;swimlaneHead=0;swimlaneBody=0;fillColor=none;collapsible=0;dropTarget=0;points=[[0,0.5],[1,0.5]];portConstraint=eastwest;top=0;left=0;right=0;bottom=0;fontSize=16;" vertex="1" parent="0hg39-t4RLO_7bFHNs7U-2">
          <mxGeometry y="294" width="180" height="39" as="geometry" />
        </mxCell>
        <mxCell id="0hg39-t4RLO_7bFHNs7U-25" value="" style="shape=partialRectangle;connectable=0;fillColor=none;top=0;left=0;bottom=0;right=0;editable=1;overflow=hidden;whiteSpace=wrap;html=1;fontSize=16;" vertex="1" parent="0hg39-t4RLO_7bFHNs7U-24">
          <mxGeometry width="30" height="39" as="geometry">
            <mxRectangle width="30" height="39" as="alternateBounds" />
          </mxGeometry>
        </mxCell>
        <mxCell id="0hg39-t4RLO_7bFHNs7U-26" value="gender" style="shape=partialRectangle;connectable=0;fillColor=none;top=0;left=0;bottom=0;right=0;align=left;spacingLeft=6;overflow=hidden;whiteSpace=wrap;html=1;fontSize=16;" vertex="1" parent="0hg39-t4RLO_7bFHNs7U-24">
          <mxGeometry x="30" width="150" height="39" as="geometry">
            <mxRectangle width="150" height="39" as="alternateBounds" />
          </mxGeometry>
        </mxCell>
        <mxCell id="0hg39-t4RLO_7bFHNs7U-27" value="" style="shape=tableRow;horizontal=0;startSize=0;swimlaneHead=0;swimlaneBody=0;fillColor=none;collapsible=0;dropTarget=0;points=[[0,0.5],[1,0.5]];portConstraint=eastwest;top=0;left=0;right=0;bottom=0;fontSize=16;" vertex="1" parent="0hg39-t4RLO_7bFHNs7U-2">
          <mxGeometry y="333" width="180" height="39" as="geometry" />
        </mxCell>
        <mxCell id="0hg39-t4RLO_7bFHNs7U-28" value="" style="shape=partialRectangle;connectable=0;fillColor=none;top=0;left=0;bottom=0;right=0;editable=1;overflow=hidden;whiteSpace=wrap;html=1;fontSize=16;" vertex="1" parent="0hg39-t4RLO_7bFHNs7U-27">
          <mxGeometry width="30" height="39" as="geometry">
            <mxRectangle width="30" height="39" as="alternateBounds" />
          </mxGeometry>
        </mxCell>
        <mxCell id="0hg39-t4RLO_7bFHNs7U-29" value="birthdate" style="shape=partialRectangle;connectable=0;fillColor=none;top=0;left=0;bottom=0;right=0;align=left;spacingLeft=6;overflow=hidden;whiteSpace=wrap;html=1;fontSize=16;" vertex="1" parent="0hg39-t4RLO_7bFHNs7U-27">
          <mxGeometry x="30" width="150" height="39" as="geometry">
            <mxRectangle width="150" height="39" as="alternateBounds" />
          </mxGeometry>
        </mxCell>
        <mxCell id="0hg39-t4RLO_7bFHNs7U-30" value="" style="shape=tableRow;horizontal=0;startSize=0;swimlaneHead=0;swimlaneBody=0;fillColor=none;collapsible=0;dropTarget=0;points=[[0,0.5],[1,0.5]];portConstraint=eastwest;top=0;left=0;right=0;bottom=0;fontSize=16;" vertex="1" parent="0hg39-t4RLO_7bFHNs7U-2">
          <mxGeometry y="372" width="180" height="39" as="geometry" />
        </mxCell>
        <mxCell id="0hg39-t4RLO_7bFHNs7U-31" value="" style="shape=partialRectangle;connectable=0;fillColor=none;top=0;left=0;bottom=0;right=0;editable=1;overflow=hidden;whiteSpace=wrap;html=1;fontSize=16;" vertex="1" parent="0hg39-t4RLO_7bFHNs7U-30">
          <mxGeometry width="30" height="39" as="geometry">
            <mxRectangle width="30" height="39" as="alternateBounds" />
          </mxGeometry>
        </mxCell>
        <mxCell id="0hg39-t4RLO_7bFHNs7U-32" value="country" style="shape=partialRectangle;connectable=0;fillColor=none;top=0;left=0;bottom=0;right=0;align=left;spacingLeft=6;overflow=hidden;whiteSpace=wrap;html=1;fontSize=16;" vertex="1" parent="0hg39-t4RLO_7bFHNs7U-30">
          <mxGeometry x="30" width="150" height="39" as="geometry">
            <mxRectangle width="150" height="39" as="alternateBounds" />
          </mxGeometry>
        </mxCell>
        <mxCell id="0hg39-t4RLO_7bFHNs7U-33" value="gold.dim_products" style="shape=table;startSize=30;container=1;collapsible=1;childLayout=tableLayout;fixedRows=1;rowLines=0;fontStyle=1;align=center;resizeLast=1;html=1;rounded=1;fillColor=#fff2cc;strokeColor=#d6b656;fontSize=16;" vertex="1" parent="1">
          <mxGeometry x="750" y="217" width="180" height="454" as="geometry" />
        </mxCell>
        <mxCell id="0hg39-t4RLO_7bFHNs7U-34" value="" style="shape=tableRow;horizontal=0;startSize=0;swimlaneHead=0;swimlaneBody=0;fillColor=none;collapsible=0;dropTarget=0;points=[[0,0.5],[1,0.5]];portConstraint=eastwest;top=0;left=0;right=0;bottom=1;" vertex="1" parent="0hg39-t4RLO_7bFHNs7U-33">
          <mxGeometry y="30" width="180" height="30" as="geometry" />
        </mxCell>
        <mxCell id="0hg39-t4RLO_7bFHNs7U-35" value="&lt;font style=&quot;font-size: 16px;&quot;&gt;PK&lt;/font&gt;" style="shape=partialRectangle;connectable=0;fillColor=none;top=0;left=0;bottom=0;right=0;fontStyle=1;overflow=hidden;whiteSpace=wrap;html=1;" vertex="1" parent="0hg39-t4RLO_7bFHNs7U-34">
          <mxGeometry width="30" height="30" as="geometry">
            <mxRectangle width="30" height="30" as="alternateBounds" />
          </mxGeometry>
        </mxCell>
        <mxCell id="0hg39-t4RLO_7bFHNs7U-36" value="&lt;font style=&quot;font-size: 16px;&quot;&gt;product_key&lt;/font&gt;" style="shape=partialRectangle;connectable=0;fillColor=none;top=0;left=0;bottom=0;right=0;align=left;spacingLeft=6;fontStyle=5;overflow=hidden;whiteSpace=wrap;html=1;labelBackgroundColor=#CCCCCC;" vertex="1" parent="0hg39-t4RLO_7bFHNs7U-34">
          <mxGeometry x="30" width="150" height="30" as="geometry">
            <mxRectangle width="150" height="30" as="alternateBounds" />
          </mxGeometry>
        </mxCell>
        <mxCell id="0hg39-t4RLO_7bFHNs7U-37" value="" style="shape=tableRow;horizontal=0;startSize=0;swimlaneHead=0;swimlaneBody=0;fillColor=none;collapsible=0;dropTarget=0;points=[[0,0.5],[1,0.5]];portConstraint=eastwest;top=0;left=0;right=0;bottom=0;fontSize=16;" vertex="1" parent="0hg39-t4RLO_7bFHNs7U-33">
          <mxGeometry y="60" width="180" height="43" as="geometry" />
        </mxCell>
        <mxCell id="0hg39-t4RLO_7bFHNs7U-38" value="" style="shape=partialRectangle;connectable=0;fillColor=none;top=0;left=0;bottom=0;right=0;editable=1;overflow=hidden;whiteSpace=wrap;html=1;fontSize=16;" vertex="1" parent="0hg39-t4RLO_7bFHNs7U-37">
          <mxGeometry width="30" height="43" as="geometry">
            <mxRectangle width="30" height="43" as="alternateBounds" />
          </mxGeometry>
        </mxCell>
        <mxCell id="0hg39-t4RLO_7bFHNs7U-39" value="product_id" style="shape=partialRectangle;connectable=0;fillColor=none;top=0;left=0;bottom=0;right=0;align=left;spacingLeft=6;overflow=hidden;whiteSpace=wrap;html=1;fontSize=16;" vertex="1" parent="0hg39-t4RLO_7bFHNs7U-37">
          <mxGeometry x="30" width="150" height="43" as="geometry">
            <mxRectangle width="150" height="43" as="alternateBounds" />
          </mxGeometry>
        </mxCell>
        <mxCell id="0hg39-t4RLO_7bFHNs7U-40" value="" style="shape=tableRow;horizontal=0;startSize=0;swimlaneHead=0;swimlaneBody=0;fillColor=none;collapsible=0;dropTarget=0;points=[[0,0.5],[1,0.5]];portConstraint=eastwest;top=0;left=0;right=0;bottom=0;fontSize=16;" vertex="1" parent="0hg39-t4RLO_7bFHNs7U-33">
          <mxGeometry y="103" width="180" height="39" as="geometry" />
        </mxCell>
        <mxCell id="0hg39-t4RLO_7bFHNs7U-41" value="" style="shape=partialRectangle;connectable=0;fillColor=none;top=0;left=0;bottom=0;right=0;editable=1;overflow=hidden;whiteSpace=wrap;html=1;fontSize=16;" vertex="1" parent="0hg39-t4RLO_7bFHNs7U-40">
          <mxGeometry width="30" height="39" as="geometry">
            <mxRectangle width="30" height="39" as="alternateBounds" />
          </mxGeometry>
        </mxCell>
        <mxCell id="0hg39-t4RLO_7bFHNs7U-42" value="product_number" style="shape=partialRectangle;connectable=0;fillColor=none;top=0;left=0;bottom=0;right=0;align=left;spacingLeft=6;overflow=hidden;whiteSpace=wrap;html=1;fontSize=16;" vertex="1" parent="0hg39-t4RLO_7bFHNs7U-40">
          <mxGeometry x="30" width="150" height="39" as="geometry">
            <mxRectangle width="150" height="39" as="alternateBounds" />
          </mxGeometry>
        </mxCell>
        <mxCell id="0hg39-t4RLO_7bFHNs7U-43" value="" style="shape=tableRow;horizontal=0;startSize=0;swimlaneHead=0;swimlaneBody=0;fillColor=none;collapsible=0;dropTarget=0;points=[[0,0.5],[1,0.5]];portConstraint=eastwest;top=0;left=0;right=0;bottom=0;fontSize=16;" vertex="1" parent="0hg39-t4RLO_7bFHNs7U-33">
          <mxGeometry y="142" width="180" height="39" as="geometry" />
        </mxCell>
        <mxCell id="0hg39-t4RLO_7bFHNs7U-44" value="" style="shape=partialRectangle;connectable=0;fillColor=none;top=0;left=0;bottom=0;right=0;editable=1;overflow=hidden;whiteSpace=wrap;html=1;fontSize=16;" vertex="1" parent="0hg39-t4RLO_7bFHNs7U-43">
          <mxGeometry width="30" height="39" as="geometry">
            <mxRectangle width="30" height="39" as="alternateBounds" />
          </mxGeometry>
        </mxCell>
        <mxCell id="0hg39-t4RLO_7bFHNs7U-45" value="product_name" style="shape=partialRectangle;connectable=0;fillColor=none;top=0;left=0;bottom=0;right=0;align=left;spacingLeft=6;overflow=hidden;whiteSpace=wrap;html=1;fontSize=16;" vertex="1" parent="0hg39-t4RLO_7bFHNs7U-43">
          <mxGeometry x="30" width="150" height="39" as="geometry">
            <mxRectangle width="150" height="39" as="alternateBounds" />
          </mxGeometry>
        </mxCell>
        <mxCell id="0hg39-t4RLO_7bFHNs7U-46" value="" style="shape=tableRow;horizontal=0;startSize=0;swimlaneHead=0;swimlaneBody=0;fillColor=none;collapsible=0;dropTarget=0;points=[[0,0.5],[1,0.5]];portConstraint=eastwest;top=0;left=0;right=0;bottom=0;fontSize=16;" vertex="1" parent="0hg39-t4RLO_7bFHNs7U-33">
          <mxGeometry y="181" width="180" height="39" as="geometry" />
        </mxCell>
        <mxCell id="0hg39-t4RLO_7bFHNs7U-47" value="" style="shape=partialRectangle;connectable=0;fillColor=none;top=0;left=0;bottom=0;right=0;editable=1;overflow=hidden;whiteSpace=wrap;html=1;fontSize=16;" vertex="1" parent="0hg39-t4RLO_7bFHNs7U-46">
          <mxGeometry width="30" height="39" as="geometry">
            <mxRectangle width="30" height="39" as="alternateBounds" />
          </mxGeometry>
        </mxCell>
        <mxCell id="0hg39-t4RLO_7bFHNs7U-48" value="category_id" style="shape=partialRectangle;connectable=0;fillColor=none;top=0;left=0;bottom=0;right=0;align=left;spacingLeft=6;overflow=hidden;whiteSpace=wrap;html=1;fontSize=16;" vertex="1" parent="0hg39-t4RLO_7bFHNs7U-46">
          <mxGeometry x="30" width="150" height="39" as="geometry">
            <mxRectangle width="150" height="39" as="alternateBounds" />
          </mxGeometry>
        </mxCell>
        <mxCell id="0hg39-t4RLO_7bFHNs7U-49" value="" style="shape=tableRow;horizontal=0;startSize=0;swimlaneHead=0;swimlaneBody=0;fillColor=none;collapsible=0;dropTarget=0;points=[[0,0.5],[1,0.5]];portConstraint=eastwest;top=0;left=0;right=0;bottom=0;fontSize=16;" vertex="1" parent="0hg39-t4RLO_7bFHNs7U-33">
          <mxGeometry y="220" width="180" height="39" as="geometry" />
        </mxCell>
        <mxCell id="0hg39-t4RLO_7bFHNs7U-50" value="" style="shape=partialRectangle;connectable=0;fillColor=none;top=0;left=0;bottom=0;right=0;editable=1;overflow=hidden;whiteSpace=wrap;html=1;fontSize=16;" vertex="1" parent="0hg39-t4RLO_7bFHNs7U-49">
          <mxGeometry width="30" height="39" as="geometry">
            <mxRectangle width="30" height="39" as="alternateBounds" />
          </mxGeometry>
        </mxCell>
        <mxCell id="0hg39-t4RLO_7bFHNs7U-51" value="category" style="shape=partialRectangle;connectable=0;fillColor=none;top=0;left=0;bottom=0;right=0;align=left;spacingLeft=6;overflow=hidden;whiteSpace=wrap;html=1;fontSize=16;" vertex="1" parent="0hg39-t4RLO_7bFHNs7U-49">
          <mxGeometry x="30" width="150" height="39" as="geometry">
            <mxRectangle width="150" height="39" as="alternateBounds" />
          </mxGeometry>
        </mxCell>
        <mxCell id="0hg39-t4RLO_7bFHNs7U-52" value="" style="shape=tableRow;horizontal=0;startSize=0;swimlaneHead=0;swimlaneBody=0;fillColor=none;collapsible=0;dropTarget=0;points=[[0,0.5],[1,0.5]];portConstraint=eastwest;top=0;left=0;right=0;bottom=0;fontSize=16;" vertex="1" parent="0hg39-t4RLO_7bFHNs7U-33">
          <mxGeometry y="259" width="180" height="39" as="geometry" />
        </mxCell>
        <mxCell id="0hg39-t4RLO_7bFHNs7U-53" value="" style="shape=partialRectangle;connectable=0;fillColor=none;top=0;left=0;bottom=0;right=0;editable=1;overflow=hidden;whiteSpace=wrap;html=1;fontSize=16;" vertex="1" parent="0hg39-t4RLO_7bFHNs7U-52">
          <mxGeometry width="30" height="39" as="geometry">
            <mxRectangle width="30" height="39" as="alternateBounds" />
          </mxGeometry>
        </mxCell>
        <mxCell id="0hg39-t4RLO_7bFHNs7U-54" value="subcategory" style="shape=partialRectangle;connectable=0;fillColor=none;top=0;left=0;bottom=0;right=0;align=left;spacingLeft=6;overflow=hidden;whiteSpace=wrap;html=1;fontSize=16;" vertex="1" parent="0hg39-t4RLO_7bFHNs7U-52">
          <mxGeometry x="30" width="150" height="39" as="geometry">
            <mxRectangle width="150" height="39" as="alternateBounds" />
          </mxGeometry>
        </mxCell>
        <mxCell id="0hg39-t4RLO_7bFHNs7U-55" value="" style="shape=tableRow;horizontal=0;startSize=0;swimlaneHead=0;swimlaneBody=0;fillColor=none;collapsible=0;dropTarget=0;points=[[0,0.5],[1,0.5]];portConstraint=eastwest;top=0;left=0;right=0;bottom=0;fontSize=16;" vertex="1" parent="0hg39-t4RLO_7bFHNs7U-33">
          <mxGeometry y="298" width="180" height="39" as="geometry" />
        </mxCell>
        <mxCell id="0hg39-t4RLO_7bFHNs7U-56" value="" style="shape=partialRectangle;connectable=0;fillColor=none;top=0;left=0;bottom=0;right=0;editable=1;overflow=hidden;whiteSpace=wrap;html=1;fontSize=16;" vertex="1" parent="0hg39-t4RLO_7bFHNs7U-55">
          <mxGeometry width="30" height="39" as="geometry">
            <mxRectangle width="30" height="39" as="alternateBounds" />
          </mxGeometry>
        </mxCell>
        <mxCell id="0hg39-t4RLO_7bFHNs7U-57" value="maintenance" style="shape=partialRectangle;connectable=0;fillColor=none;top=0;left=0;bottom=0;right=0;align=left;spacingLeft=6;overflow=hidden;whiteSpace=wrap;html=1;fontSize=16;" vertex="1" parent="0hg39-t4RLO_7bFHNs7U-55">
          <mxGeometry x="30" width="150" height="39" as="geometry">
            <mxRectangle width="150" height="39" as="alternateBounds" />
          </mxGeometry>
        </mxCell>
        <mxCell id="0hg39-t4RLO_7bFHNs7U-58" value="" style="shape=tableRow;horizontal=0;startSize=0;swimlaneHead=0;swimlaneBody=0;fillColor=none;collapsible=0;dropTarget=0;points=[[0,0.5],[1,0.5]];portConstraint=eastwest;top=0;left=0;right=0;bottom=0;fontSize=16;" vertex="1" parent="0hg39-t4RLO_7bFHNs7U-33">
          <mxGeometry y="337" width="180" height="39" as="geometry" />
        </mxCell>
        <mxCell id="0hg39-t4RLO_7bFHNs7U-59" value="" style="shape=partialRectangle;connectable=0;fillColor=none;top=0;left=0;bottom=0;right=0;editable=1;overflow=hidden;whiteSpace=wrap;html=1;fontSize=16;" vertex="1" parent="0hg39-t4RLO_7bFHNs7U-58">
          <mxGeometry width="30" height="39" as="geometry">
            <mxRectangle width="30" height="39" as="alternateBounds" />
          </mxGeometry>
        </mxCell>
        <mxCell id="0hg39-t4RLO_7bFHNs7U-60" value="cost" style="shape=partialRectangle;connectable=0;fillColor=none;top=0;left=0;bottom=0;right=0;align=left;spacingLeft=6;overflow=hidden;whiteSpace=wrap;html=1;fontSize=16;" vertex="1" parent="0hg39-t4RLO_7bFHNs7U-58">
          <mxGeometry x="30" width="150" height="39" as="geometry">
            <mxRectangle width="150" height="39" as="alternateBounds" />
          </mxGeometry>
        </mxCell>
        <mxCell id="0hg39-t4RLO_7bFHNs7U-61" value="" style="shape=tableRow;horizontal=0;startSize=0;swimlaneHead=0;swimlaneBody=0;fillColor=none;collapsible=0;dropTarget=0;points=[[0,0.5],[1,0.5]];portConstraint=eastwest;top=0;left=0;right=0;bottom=0;fontSize=16;" vertex="1" parent="0hg39-t4RLO_7bFHNs7U-33">
          <mxGeometry y="376" width="180" height="39" as="geometry" />
        </mxCell>
        <mxCell id="0hg39-t4RLO_7bFHNs7U-62" value="" style="shape=partialRectangle;connectable=0;fillColor=none;top=0;left=0;bottom=0;right=0;editable=1;overflow=hidden;whiteSpace=wrap;html=1;fontSize=16;" vertex="1" parent="0hg39-t4RLO_7bFHNs7U-61">
          <mxGeometry width="30" height="39" as="geometry">
            <mxRectangle width="30" height="39" as="alternateBounds" />
          </mxGeometry>
        </mxCell>
        <mxCell id="0hg39-t4RLO_7bFHNs7U-63" value="product_line" style="shape=partialRectangle;connectable=0;fillColor=none;top=0;left=0;bottom=0;right=0;align=left;spacingLeft=6;overflow=hidden;whiteSpace=wrap;html=1;fontSize=16;" vertex="1" parent="0hg39-t4RLO_7bFHNs7U-61">
          <mxGeometry x="30" width="150" height="39" as="geometry">
            <mxRectangle width="150" height="39" as="alternateBounds" />
          </mxGeometry>
        </mxCell>
        <mxCell id="0hg39-t4RLO_7bFHNs7U-64" value="" style="shape=tableRow;horizontal=0;startSize=0;swimlaneHead=0;swimlaneBody=0;fillColor=none;collapsible=0;dropTarget=0;points=[[0,0.5],[1,0.5]];portConstraint=eastwest;top=0;left=0;right=0;bottom=0;fontSize=16;" vertex="1" parent="0hg39-t4RLO_7bFHNs7U-33">
          <mxGeometry y="415" width="180" height="39" as="geometry" />
        </mxCell>
        <mxCell id="0hg39-t4RLO_7bFHNs7U-65" value="" style="shape=partialRectangle;connectable=0;fillColor=none;top=0;left=0;bottom=0;right=0;editable=1;overflow=hidden;whiteSpace=wrap;html=1;fontSize=16;" vertex="1" parent="0hg39-t4RLO_7bFHNs7U-64">
          <mxGeometry width="30" height="39" as="geometry">
            <mxRectangle width="30" height="39" as="alternateBounds" />
          </mxGeometry>
        </mxCell>
        <mxCell id="0hg39-t4RLO_7bFHNs7U-66" value="start_date" style="shape=partialRectangle;connectable=0;fillColor=none;top=0;left=0;bottom=0;right=0;align=left;spacingLeft=6;overflow=hidden;whiteSpace=wrap;html=1;fontSize=16;" vertex="1" parent="0hg39-t4RLO_7bFHNs7U-64">
          <mxGeometry x="30" width="150" height="39" as="geometry">
            <mxRectangle width="150" height="39" as="alternateBounds" />
          </mxGeometry>
        </mxCell>
        <mxCell id="0hg39-t4RLO_7bFHNs7U-67" value="gold.fact_sales" style="shape=table;startSize=30;container=1;collapsible=1;childLayout=tableLayout;fixedRows=1;rowLines=0;fontStyle=1;align=center;resizeLast=1;html=1;rounded=1;fillColor=#dae8fc;strokeColor=#6c8ebf;fontSize=16;" vertex="1" parent="1">
          <mxGeometry x="480" y="217" width="180" height="385" as="geometry" />
        </mxCell>
        <mxCell id="0hg39-t4RLO_7bFHNs7U-71" value="" style="shape=tableRow;horizontal=0;startSize=0;swimlaneHead=0;swimlaneBody=0;fillColor=none;collapsible=0;dropTarget=0;points=[[0,0.5],[1,0.5]];portConstraint=eastwest;top=0;left=0;right=0;bottom=0;fontSize=16;" vertex="1" parent="0hg39-t4RLO_7bFHNs7U-67">
          <mxGeometry y="30" width="180" height="43" as="geometry" />
        </mxCell>
        <mxCell id="0hg39-t4RLO_7bFHNs7U-72" value="" style="shape=partialRectangle;connectable=0;fillColor=none;top=0;left=0;bottom=0;right=0;editable=1;overflow=hidden;whiteSpace=wrap;html=1;fontSize=16;" vertex="1" parent="0hg39-t4RLO_7bFHNs7U-71">
          <mxGeometry width="40" height="43" as="geometry">
            <mxRectangle width="40" height="43" as="alternateBounds" />
          </mxGeometry>
        </mxCell>
        <mxCell id="0hg39-t4RLO_7bFHNs7U-73" value="order_number" style="shape=partialRectangle;connectable=0;fillColor=none;top=0;left=0;bottom=0;right=0;align=left;spacingLeft=6;overflow=hidden;whiteSpace=wrap;html=1;fontSize=16;" vertex="1" parent="0hg39-t4RLO_7bFHNs7U-71">
          <mxGeometry x="40" width="140" height="43" as="geometry">
            <mxRectangle width="140" height="43" as="alternateBounds" />
          </mxGeometry>
        </mxCell>
        <mxCell id="0hg39-t4RLO_7bFHNs7U-74" value="" style="shape=tableRow;horizontal=0;startSize=0;swimlaneHead=0;swimlaneBody=0;fillColor=none;collapsible=0;dropTarget=0;points=[[0,0.5],[1,0.5]];portConstraint=eastwest;top=0;left=0;right=0;bottom=0;fontSize=16;" vertex="1" parent="0hg39-t4RLO_7bFHNs7U-67">
          <mxGeometry y="73" width="180" height="39" as="geometry" />
        </mxCell>
        <mxCell id="0hg39-t4RLO_7bFHNs7U-75" value="&lt;b&gt;FK1&lt;/b&gt;" style="shape=partialRectangle;connectable=0;fillColor=none;top=0;left=0;bottom=0;right=0;editable=1;overflow=hidden;whiteSpace=wrap;html=1;fontSize=16;" vertex="1" parent="0hg39-t4RLO_7bFHNs7U-74">
          <mxGeometry width="40" height="39" as="geometry">
            <mxRectangle width="40" height="39" as="alternateBounds" />
          </mxGeometry>
        </mxCell>
        <mxCell id="0hg39-t4RLO_7bFHNs7U-76" value="product_key" style="shape=partialRectangle;connectable=0;fillColor=none;top=0;left=0;bottom=0;right=0;align=left;spacingLeft=6;overflow=hidden;whiteSpace=wrap;html=1;fontSize=16;labelBackgroundColor=#CCCCCC;" vertex="1" parent="0hg39-t4RLO_7bFHNs7U-74">
          <mxGeometry x="40" width="140" height="39" as="geometry">
            <mxRectangle width="140" height="39" as="alternateBounds" />
          </mxGeometry>
        </mxCell>
        <mxCell id="0hg39-t4RLO_7bFHNs7U-77" value="" style="shape=tableRow;horizontal=0;startSize=0;swimlaneHead=0;swimlaneBody=0;fillColor=none;collapsible=0;dropTarget=0;points=[[0,0.5],[1,0.5]];portConstraint=eastwest;top=0;left=0;right=0;bottom=0;fontSize=16;" vertex="1" parent="0hg39-t4RLO_7bFHNs7U-67">
          <mxGeometry y="112" width="180" height="39" as="geometry" />
        </mxCell>
        <mxCell id="0hg39-t4RLO_7bFHNs7U-78" value="&lt;b&gt;FK2&lt;/b&gt;" style="shape=partialRectangle;connectable=0;fillColor=none;top=0;left=0;bottom=0;right=0;editable=1;overflow=hidden;whiteSpace=wrap;html=1;fontSize=16;" vertex="1" parent="0hg39-t4RLO_7bFHNs7U-77">
          <mxGeometry width="40" height="39" as="geometry">
            <mxRectangle width="40" height="39" as="alternateBounds" />
          </mxGeometry>
        </mxCell>
        <mxCell id="0hg39-t4RLO_7bFHNs7U-79" value="customer_key" style="shape=partialRectangle;connectable=0;fillColor=none;top=0;left=0;bottom=0;right=0;align=left;spacingLeft=6;overflow=hidden;whiteSpace=wrap;html=1;fontSize=16;labelBackgroundColor=#CCCCCC;" vertex="1" parent="0hg39-t4RLO_7bFHNs7U-77">
          <mxGeometry x="40" width="140" height="39" as="geometry">
            <mxRectangle width="140" height="39" as="alternateBounds" />
          </mxGeometry>
        </mxCell>
        <mxCell id="0hg39-t4RLO_7bFHNs7U-80" value="" style="shape=tableRow;horizontal=0;startSize=0;swimlaneHead=0;swimlaneBody=0;fillColor=none;collapsible=0;dropTarget=0;points=[[0,0.5],[1,0.5]];portConstraint=eastwest;top=0;left=0;right=0;bottom=0;fontSize=16;" vertex="1" parent="0hg39-t4RLO_7bFHNs7U-67">
          <mxGeometry y="151" width="180" height="39" as="geometry" />
        </mxCell>
        <mxCell id="0hg39-t4RLO_7bFHNs7U-81" value="" style="shape=partialRectangle;connectable=0;fillColor=none;top=0;left=0;bottom=0;right=0;editable=1;overflow=hidden;whiteSpace=wrap;html=1;fontSize=16;" vertex="1" parent="0hg39-t4RLO_7bFHNs7U-80">
          <mxGeometry width="40" height="39" as="geometry">
            <mxRectangle width="40" height="39" as="alternateBounds" />
          </mxGeometry>
        </mxCell>
        <mxCell id="0hg39-t4RLO_7bFHNs7U-82" value="order_date" style="shape=partialRectangle;connectable=0;fillColor=none;top=0;left=0;bottom=0;right=0;align=left;spacingLeft=6;overflow=hidden;whiteSpace=wrap;html=1;fontSize=16;" vertex="1" parent="0hg39-t4RLO_7bFHNs7U-80">
          <mxGeometry x="40" width="140" height="39" as="geometry">
            <mxRectangle width="140" height="39" as="alternateBounds" />
          </mxGeometry>
        </mxCell>
        <mxCell id="0hg39-t4RLO_7bFHNs7U-83" value="" style="shape=tableRow;horizontal=0;startSize=0;swimlaneHead=0;swimlaneBody=0;fillColor=none;collapsible=0;dropTarget=0;points=[[0,0.5],[1,0.5]];portConstraint=eastwest;top=0;left=0;right=0;bottom=0;fontSize=16;" vertex="1" parent="0hg39-t4RLO_7bFHNs7U-67">
          <mxGeometry y="190" width="180" height="39" as="geometry" />
        </mxCell>
        <mxCell id="0hg39-t4RLO_7bFHNs7U-84" value="" style="shape=partialRectangle;connectable=0;fillColor=none;top=0;left=0;bottom=0;right=0;editable=1;overflow=hidden;whiteSpace=wrap;html=1;fontSize=16;" vertex="1" parent="0hg39-t4RLO_7bFHNs7U-83">
          <mxGeometry width="40" height="39" as="geometry">
            <mxRectangle width="40" height="39" as="alternateBounds" />
          </mxGeometry>
        </mxCell>
        <mxCell id="0hg39-t4RLO_7bFHNs7U-85" value="shipping_date" style="shape=partialRectangle;connectable=0;fillColor=none;top=0;left=0;bottom=0;right=0;align=left;spacingLeft=6;overflow=hidden;whiteSpace=wrap;html=1;fontSize=16;" vertex="1" parent="0hg39-t4RLO_7bFHNs7U-83">
          <mxGeometry x="40" width="140" height="39" as="geometry">
            <mxRectangle width="140" height="39" as="alternateBounds" />
          </mxGeometry>
        </mxCell>
        <mxCell id="0hg39-t4RLO_7bFHNs7U-86" value="" style="shape=tableRow;horizontal=0;startSize=0;swimlaneHead=0;swimlaneBody=0;fillColor=none;collapsible=0;dropTarget=0;points=[[0,0.5],[1,0.5]];portConstraint=eastwest;top=0;left=0;right=0;bottom=0;fontSize=16;" vertex="1" parent="0hg39-t4RLO_7bFHNs7U-67">
          <mxGeometry y="229" width="180" height="39" as="geometry" />
        </mxCell>
        <mxCell id="0hg39-t4RLO_7bFHNs7U-87" value="" style="shape=partialRectangle;connectable=0;fillColor=none;top=0;left=0;bottom=0;right=0;editable=1;overflow=hidden;whiteSpace=wrap;html=1;fontSize=16;" vertex="1" parent="0hg39-t4RLO_7bFHNs7U-86">
          <mxGeometry width="40" height="39" as="geometry">
            <mxRectangle width="40" height="39" as="alternateBounds" />
          </mxGeometry>
        </mxCell>
        <mxCell id="0hg39-t4RLO_7bFHNs7U-88" value="due_date" style="shape=partialRectangle;connectable=0;fillColor=none;top=0;left=0;bottom=0;right=0;align=left;spacingLeft=6;overflow=hidden;whiteSpace=wrap;html=1;fontSize=16;" vertex="1" parent="0hg39-t4RLO_7bFHNs7U-86">
          <mxGeometry x="40" width="140" height="39" as="geometry">
            <mxRectangle width="140" height="39" as="alternateBounds" />
          </mxGeometry>
        </mxCell>
        <mxCell id="0hg39-t4RLO_7bFHNs7U-89" value="" style="shape=tableRow;horizontal=0;startSize=0;swimlaneHead=0;swimlaneBody=0;fillColor=none;collapsible=0;dropTarget=0;points=[[0,0.5],[1,0.5]];portConstraint=eastwest;top=0;left=0;right=0;bottom=0;fontSize=16;" vertex="1" parent="0hg39-t4RLO_7bFHNs7U-67">
          <mxGeometry y="268" width="180" height="39" as="geometry" />
        </mxCell>
        <mxCell id="0hg39-t4RLO_7bFHNs7U-90" value="" style="shape=partialRectangle;connectable=0;fillColor=none;top=0;left=0;bottom=0;right=0;editable=1;overflow=hidden;whiteSpace=wrap;html=1;fontSize=16;" vertex="1" parent="0hg39-t4RLO_7bFHNs7U-89">
          <mxGeometry width="40" height="39" as="geometry">
            <mxRectangle width="40" height="39" as="alternateBounds" />
          </mxGeometry>
        </mxCell>
        <mxCell id="0hg39-t4RLO_7bFHNs7U-91" value="sales_amount" style="shape=partialRectangle;connectable=0;fillColor=none;top=0;left=0;bottom=0;right=0;align=left;spacingLeft=6;overflow=hidden;whiteSpace=wrap;html=1;fontSize=16;" vertex="1" parent="0hg39-t4RLO_7bFHNs7U-89">
          <mxGeometry x="40" width="140" height="39" as="geometry">
            <mxRectangle width="140" height="39" as="alternateBounds" />
          </mxGeometry>
        </mxCell>
        <mxCell id="0hg39-t4RLO_7bFHNs7U-92" value="" style="shape=tableRow;horizontal=0;startSize=0;swimlaneHead=0;swimlaneBody=0;fillColor=none;collapsible=0;dropTarget=0;points=[[0,0.5],[1,0.5]];portConstraint=eastwest;top=0;left=0;right=0;bottom=0;fontSize=16;" vertex="1" parent="0hg39-t4RLO_7bFHNs7U-67">
          <mxGeometry y="307" width="180" height="39" as="geometry" />
        </mxCell>
        <mxCell id="0hg39-t4RLO_7bFHNs7U-93" value="" style="shape=partialRectangle;connectable=0;fillColor=none;top=0;left=0;bottom=0;right=0;editable=1;overflow=hidden;whiteSpace=wrap;html=1;fontSize=16;" vertex="1" parent="0hg39-t4RLO_7bFHNs7U-92">
          <mxGeometry width="40" height="39" as="geometry">
            <mxRectangle width="40" height="39" as="alternateBounds" />
          </mxGeometry>
        </mxCell>
        <mxCell id="0hg39-t4RLO_7bFHNs7U-94" value="quantity" style="shape=partialRectangle;connectable=0;fillColor=none;top=0;left=0;bottom=0;right=0;align=left;spacingLeft=6;overflow=hidden;whiteSpace=wrap;html=1;fontSize=16;" vertex="1" parent="0hg39-t4RLO_7bFHNs7U-92">
          <mxGeometry x="40" width="140" height="39" as="geometry">
            <mxRectangle width="140" height="39" as="alternateBounds" />
          </mxGeometry>
        </mxCell>
        <mxCell id="0hg39-t4RLO_7bFHNs7U-95" value="" style="shape=tableRow;horizontal=0;startSize=0;swimlaneHead=0;swimlaneBody=0;fillColor=none;collapsible=0;dropTarget=0;points=[[0,0.5],[1,0.5]];portConstraint=eastwest;top=0;left=0;right=0;bottom=0;fontSize=16;" vertex="1" parent="0hg39-t4RLO_7bFHNs7U-67">
          <mxGeometry y="346" width="180" height="39" as="geometry" />
        </mxCell>
        <mxCell id="0hg39-t4RLO_7bFHNs7U-96" value="" style="shape=partialRectangle;connectable=0;fillColor=none;top=0;left=0;bottom=0;right=0;editable=1;overflow=hidden;whiteSpace=wrap;html=1;fontSize=16;" vertex="1" parent="0hg39-t4RLO_7bFHNs7U-95">
          <mxGeometry width="40" height="39" as="geometry">
            <mxRectangle width="40" height="39" as="alternateBounds" />
          </mxGeometry>
        </mxCell>
        <mxCell id="0hg39-t4RLO_7bFHNs7U-97" value="price" style="shape=partialRectangle;connectable=0;fillColor=none;top=0;left=0;bottom=0;right=0;align=left;spacingLeft=6;overflow=hidden;whiteSpace=wrap;html=1;fontSize=16;" vertex="1" parent="0hg39-t4RLO_7bFHNs7U-95">
          <mxGeometry x="40" width="140" height="39" as="geometry">
            <mxRectangle width="140" height="39" as="alternateBounds" />
          </mxGeometry>
        </mxCell>
        <mxCell id="0hg39-t4RLO_7bFHNs7U-101" value="" style="edgeStyle=entityRelationEdgeStyle;fontSize=12;html=1;endArrow=ERzeroToMany;startArrow=ERmandOne;rounded=0;entryX=0;entryY=0.5;entryDx=0;entryDy=0;" edge="1" parent="1" target="0hg39-t4RLO_7bFHNs7U-77">
          <mxGeometry width="100" height="100" relative="1" as="geometry">
            <mxPoint x="370" y="260" as="sourcePoint" />
            <mxPoint x="470" y="160" as="targetPoint" />
          </mxGeometry>
        </mxCell>
        <mxCell id="0hg39-t4RLO_7bFHNs7U-102" value="" style="edgeStyle=entityRelationEdgeStyle;fontSize=12;html=1;endArrow=ERzeroToMany;startArrow=ERmandOne;rounded=0;exitX=0;exitY=0.5;exitDx=0;exitDy=0;" edge="1" parent="1" source="0hg39-t4RLO_7bFHNs7U-34" target="0hg39-t4RLO_7bFHNs7U-74">
          <mxGeometry width="100" height="100" relative="1" as="geometry">
            <mxPoint x="690" y="260" as="sourcePoint" />
            <mxPoint x="770" y="379" as="targetPoint" />
          </mxGeometry>
        </mxCell>
        <mxCell id="0hg39-t4RLO_7bFHNs7U-104" value="&lt;h1 style=&quot;margin-top: 0px;&quot;&gt;&lt;u&gt;&lt;font style=&quot;font-size: 19px;&quot;&gt;Sales Calculation&lt;/font&gt;&lt;/u&gt;&lt;/h1&gt;&lt;p&gt;Sales = Quantity * price&lt;/p&gt;" style="text;html=1;whiteSpace=wrap;overflow=hidden;rounded=0;" vertex="1" parent="1">
          <mxGeometry x="580" y="610" width="180" height="70" as="geometry" />
        </mxCell>
        <mxCell id="0hg39-t4RLO_7bFHNs7U-105" value="" style="endArrow=none;dashed=1;html=1;dashPattern=1 3;strokeWidth=2;rounded=0;" edge="1" parent="1" source="0hg39-t4RLO_7bFHNs7U-89" target="0hg39-t4RLO_7bFHNs7U-104">
          <mxGeometry width="50" height="50" relative="1" as="geometry">
            <mxPoint x="510" y="698" as="sourcePoint" />
            <mxPoint x="560" y="648" as="targetPoint" />
          </mxGeometry>
        </mxCell>
      </root>
    </mxGraphModel>
  </diagram>
</mxfile>
